# xmcd
# Copyright (C) 1995-1998 Ti Kan
#
# Track frame offsets:
#       150
#       23197
#       45551
#       72242
#       105546
#       135664
#       153898
#       190121
#       211235
#       237846
#       266720
#       292067
#       326417
#
# Disc length: 4720 seconds
#
# Revision: 0
# Processed by: cddbd v1.5.2PL0 Copyright (c) Steve Scherf et al.
# Submitted via: CD-Transfer v1.0
#
DISCID=b6126e0d
DTITLE=Clubbing - 
DYEAR=14
DGENRE=
TTITLE0=Ping Pong (Hardwell Remix)
TTITLE1=Like That (Original Mix)
TTITLE2=Chattachooche (The Tomorrowland Anthem)
TTITLE3=Sinner Winner (Original Mix)
TTITLE4=Moussy (Original Mix)
TTITLE5=Samba Do Mundo (Original Mix)
TTITLE6=Return Of Wolfie, The (Original Mix)
TTITLE7=Wizard (Original Mix)
TTITLE8=South Keys (Original Mix)
TTITLE9=Don't Go (Original Mix)
TTITLE10=Weltmeister (Original Mix)
TTITLE11=South American (Juan Magan Remix)
TTITLE12=Race, The (Criminal Vibes Remix)
EXTD=
EXTT0=
EXTT1=
EXTT2=
EXTT3=
EXTT4=
EXTT5=
EXTT6=
EXTT7=
EXTT8=
EXTT9=
EXTT10=
EXTT11=
EXTT12=
PLAYORDER=
